PathFileType	4	(X/Y/Z)	Patient4_TMGait_0pt4_03_right_09.trc.trc
DataRate	CameraRate	NumFrames	NumMarkers	Units	OrigDataRate	OrigDataStartFrame	OrigNumFrames
76.086956521739	76.086956521739	4	33	mm	76.086956521739	124	       141
Frame#	Time	Sacral			L.Shoulder			Chest			R.Shoulder			Neck			R.ASIS			L.ASIS			R.Thigh.Superior			R.Thigh.Lateral			R.Thigh.Inferior			R.Patella			L.Thigh.Superior			L.Thigh.Lateral			L.Thigh.Inferior			L.Patella			L.Shank.Superior			L.Shank.Lateral			L.Shank.Inferior			R.Shank.Superior			R.Shank.Lateral			R.Shank.Inferior			R.Heel			R.Midfoot.Superior			R.Midfoot.Lateral			R.Toe			L.Heel			L.Midfoot.Lateral			L.Midfoot.Superior			L.Toe			L.Elbow			L.Wrist			R.Elbow			R.Wrist			
		X1	Y1	Z1	X2	Y2	Z2	X3	Y3	Z3	X4	Y4	Z4	X5	Y5	Z5	X6	Y6	Z6	X7	Y7	Z7	X8	Y8	Z8	X9	Y9	Z9	X10	Y10	Z10	X11	Y11	Z11	X12	Y12	Z12	X13	Y13	Z13	X14	Y14	Z14	X15	Y15	Z15	X16	Y16	Z16	X17	Y17	Z17	X18	Y18	Z18	X19	Y19	Z19	X20	Y20	Z20	X21	Y21	Z21	X22	Y22	Z22	X23	Y23	Z23	X24	Y24	Z24	X25	Y25	Z25	X26	Y26	Z26	X27	Y27	Z27	X28	Y28	Z28	X29	Y29	Z29	X30	Y30	Z30	X31	Y31	Z31	X32	Y32	Z32	X33	Y33	Z33	

124	12.386571428571	809.712600660916	1001.029108559818	446.177054449802	999.013213056942	1426.181010991940	260.875296799960	1089.377551653322	1362.706609035916	430.857626964827	992.521769918905	1438.081335109755	596.949512579718	965.566012818734	1491.252593142978	415.598808392192	1034.612048477803	940.602482609733	575.387399791095	1031.528504492889	958.156957121166	299.370712272553	1097.155682582476	751.548789177946	552.743034340452	1033.738785678741	633.901383388941	619.557333932837	1121.552562404467	590.908297182527	542.487997439029	1142.054618690879	507.740341485294	554.330924946305	1042.247380234111	732.236702897947	328.365640028678	932.360599568780	633.533461984090	259.458178052363	994.814577968454	542.411663124683	324.318772769510	981.006900510700	475.132607682882	331.963234036213	947.820357853090	407.561655574798	321.496944231617	845.414130902049	304.763157722021	267.802859940715	882.469625459091	186.826133151482	337.004672332841	1122.420689855748	418.918427311595	566.443666657629	1061.347650586611	309.556536554547	629.853207735542	1123.761968832593	219.046290474108	577.936932783172	1019.605990587654	41.837119827986	552.592141024323	1186.145188439147	103.998530588104	589.815376221254	1102.948977520371	38.320822113095	627.348952268878	1308.181180924890	60.312102289970	617.635662250089	744.492100356423	38.257053440795	381.214426277480	814.690191980492	34.494418606556	297.362550260141	899.072104371575	95.072139959473	322.488495620456	1026.893417064486	42.152004331254	287.574466218128	1064.075825894093	1097.332849507195	113.228341694255	1311.010126061309	1011.396353843697	119.175313680022	886.399390803762	1109.243162107999	713.668374985405	920.193838431922	848.839987426492	716.347030872072	
125	12.399714285714	811.812737238004	999.907799277445	449.061641642361	998.817201910479	1425.780615810378	263.990014442434	1089.928921944736	1362.592464236818	433.680859583495	993.187824552670	1437.292851942747	600.124624474280	965.623455349335	1490.625549464022	418.707898164329	1037.089507505627	939.801017648189	577.684718483699	1033.314252022295	957.576600977862	301.877835205418	1099.784060270968	750.283664898721	554.610397163338	1034.568092855600	632.611934949466	619.815121235661	1122.592380366504	589.954935504095	543.040626036404	1141.421899700852	505.984364703491	553.985799528341	1043.450966455090	731.164260592432	330.020877196909	932.591546314055	632.965920476290	261.537878727664	995.056357301075	541.338263796266	325.716061474447	981.113001798952	473.542737874869	333.108023475818	946.666662836944	406.494925897357	322.702234228384	842.611953529611	305.228865576715	269.068883237698	878.375596769074	186.384672666222	337.494068824781	1121.129574436133	416.653851096948	566.014642125487	1058.667260248605	307.882178272896	629.173690160524	1119.363158334138	216.719738159335	576.707622815828	1012.236491147691	41.867266960673	550.948717925129	1179.394596541981	101.519129322698	588.514601793616	1095.113367255274	37.636687051388	626.212458472436	1300.974805983996	56.313244959722	617.186620347712	739.156482977686	38.433660358259	381.198016664093	809.435426250154	34.528271380093	297.455700597880	893.942400068830	95.037540324455	322.556477467473	1021.686909512023	41.863122014639	287.505498277588	1064.050926357873	1096.540627523400	116.752823780121	1311.525397560969	1012.216305773804	122.058222524928	890.751808332481	1107.187324487780	717.234258829078	928.236245211551	847.286246374173	720.422195701896	
126	12.412857142857	813.929850732089	998.925760623384	452.035639177393	998.671418377048	1425.530364540493	267.199830420706	1090.532450036818	1362.618320888655	436.598005579637	993.907891300007	1436.643528840248	603.397217937168	965.727826950049	1490.149652221479	421.933812838681	1039.619218774756	939.219793983511	580.076412299473	1035.066035265709	957.120394937000	304.488183904824	1102.568396619053	749.361861830409	556.245660880458	1036.118303547560	631.801413628362	620.298095743056	1123.968155666952	589.320575373184	543.473930511042	1141.285882155911	504.492159911748	553.782175012900	1044.939447863045	730.269434910451	331.665948087166	933.216393865871	632.397063884694	263.761457564358	996.014744343818	540.316536294102	327.102243860972	982.080626603862	471.853217887955	334.158042215626	946.126013203414	405.398312771540	323.887865561512	840.203284405517	305.900951291983	270.412487678531	874.527939694763	186.076072433944	337.961527748793	1120.299500248721	414.734903751237	565.762727019771	1056.705369541777	306.628184662250	629.058904416816	1115.356429708682	214.734972128970	575.790067619385	1005.122000655162	41.983118185778	549.954862525411	1172.859992666448	99.592439729412	587.573342151895	1087.697761352468	37.205858633318	625.555857778341	1294.109900226364	53.081864935634	616.857942164793	733.837753177591	38.943991839081	381.150774883363	804.213091559563	34.693919477624	297.553359971248	888.949366683090	95.043674577365	322.560827484451	1016.507928531632	41.508072944150	287.424466506284	1063.483827333833	1095.712395110860	120.392374597347	1311.283057776530	1012.269102693236	124.996720907911	895.594672155226	1105.188060279042	721.007429206605	937.259208434797	845.903832040794	724.849810534396	
127	12.426000000000	816.012016569574	998.134439525787	455.089001067456	998.592214659155	1425.458043814463	270.475011450628	1091.182766885206	1362.796898459859	439.583396539078	994.683252993077	1436.174764439960	606.730828002273	965.877351049583	1489.854511012001	425.245810995594	1042.149618252377	938.884054735448	582.570735200846	1036.750319036051	956.829373142455	307.188569649595	1105.360303620936	748.780745712820	557.677921641830	1038.256684674570	631.440322547859	621.080069453471	1125.546320593329	588.952843521234	543.881978140474	1141.530344848518	503.274838337991	553.828189496182	1046.724577123599	729.614930304974	333.315205319480	934.327281552367	631.843931706050	266.099712025871	997.819275702457	539.388714758995	328.455299463128	984.046723330159	470.101019564825	335.052175957734	946.323127281834	404.303733770532	325.001571035418	838.306202372420	306.846976820986	271.795879725409	871.015849557052	185.977384488270	338.368276587981	1119.837902311112	413.179451202364	565.747928701367	1055.379803625960	305.765701151091	629.475853210147	1111.783560666750	213.123100543891	575.199210199740	998.480220489432	42.131684471107	549.516778559286	1166.717163391834	98.239978589290	586.986453171098	1080.895100343799	36.983032862140	625.311513760433	1287.752701162864	50.681347419970	616.666402941973	728.578858203726	39.960991905889	381.060866233701	799.046856390336	35.082193806039	297.643521917873	884.156619850383	95.119283548029	322.469106030589	1011.357409476818	41.087710073236	287.333717387358	1062.374593550073	1094.881415821376	124.148860577156	1310.270831071437	1011.527585336561	127.972946000793	900.900127362658	1103.329681234571	724.977000598194	947.243406942298	844.801695456910	729.567747487835	
